{
  "accessors": [
    {
      "bufferView": 2,
      "componentType": 5126,
      "count": 2726,
      "max": [
        126.47481536865234,
        46.039859771728516,
        57.90743637084961
      ],
      "min": [
        -119.379638671875,
        4.980738162994385,
        -11.240307807922363
      ],
      "type": "VEC3"
    },
    {
      "bufferView": 2,
      "byteOffset": 32712,
      "componentType": 5126,
      "count": 2726,
      "max": [
        1.0,
        1.0,
        1.0
      ],
      "min": [
        -1.0,
        -1.0,
        -1.0
      ],
      "type": "VEC3"
    },
    {
      "bufferView": 1,
      "componentType": 5126,
      "count": 2726,
      "max": [
        0.959593653678894,
        0.9920600652694702
      ],
      "min": [
        0.0019157230854034424,
        0.0025292038917541504
      ],
      "type": "VEC2"
    },
    {
      "bufferView": 0,
      "componentType": 5125,
      "count": 7410,
      "type": "SCALAR"
    },
    {
      "bufferView": 2,
      "byteOffset": 65424,
      "componentType": 5126,
      "count": 14373,
      "max": [
        127.63770294189453,
        46.40327835083008,
        88.18914031982422
      ],
      "min": [
        -120.54252624511719,
        -8.260059356689453,
        -90.3977279663086
      ],
      "type": "VEC3"
    },
    {
      "bufferView": 2,
      "byteOffset": 237900,
      "componentType": 5126,
      "count": 14373,
      "max": [
        1.0,
        1.0,
        1.0
      ],
      "min": [
        -1.0,
        -1.0,
        -1.0
      ],
      "type": "VEC3"
    },
    {
      "bufferView": 1,
      "byteOffset": 21808,
      "componentType": 5126,
      "count": 14373,
      "max": [
        0.9596335887908936,
        0.984551191329956
      ],
      "min": [
        0.0019157230854034424,
        0.00205114483833313
      ],
      "type": "VEC2"
    },
    {
      "bufferView": 0,
      "byteOffset": 29640,
      "componentType": 5125,
      "count": 32586,
      "type": "SCALAR"
    },
    {
      "bufferView": 2,
      "byteOffset": 410376,
      "componentType": 5126,
      "count": 47047,
      "max": [
        128.17315673828125,
        46.1721305847168,
        110.37747955322266
      ],
      "min": [
        -121.0779800415039,
        -8.260059356689453,
        -58.4726676940918
      ],
      "type": "VEC3"
    },
    {
      "bufferView": 2,
      "byteOffset": 974940,
      "componentType": 5126,
      "count": 47047,
      "max": [
        1.0,
        1.0,
        1.0
      ],
      "min": [
        -1.0,
        -1.0,
        -1.0
      ],
      "type": "VEC3"
    },
    {
      "bufferView": 1,
      "byteOffset": 136792,
      "componentType": 5126,
      "count": 47047,
      "max": [
        0.9597762823104858,
        0.9974737167358398
      ],
      "min": [
        0.0019157230854034424,
        0.00199204683303833
      ],
      "type": "VEC2"
    },
    {
      "bufferView": 0,
      "byteOffset": 159984,
      "componentType": 5125,
      "count": 129630,
      "type": "SCALAR"
    },
    {
      "bufferView": 2,
      "byteOffset": 1539504,
      "componentType": 5126,
      "count": 15563,
      "max": [
        127.15511322021484,
        46.48847961425781,
        87.2942123413086
      ],
      "min": [
        -120.0599365234375,
        -1.7896044254302979,
        -51.19093704223633
      ],
      "type": "VEC3"
    },
    {
      "bufferView": 2,
      "byteOffset": 1726260,
      "componentType": 5126,
      "count": 15563,
      "max": [
        1.0,
        1.0,
        1.0
      ],
      "min": [
        -1.0,
        -1.0,
        -1.0
      ],
      "type": "VEC3"
    },
    {
      "bufferView": 1,
      "byteOffset": 513168,
      "componentType": 5126,
      "count": 15563,
      "max": [
        0.9597426652908325,
        0.9949432015419006
      ],
      "min": [
        0.0019157230854034424,
        0.0020049214363098145
      ],
      "type": "VEC2"
    },
    {
      "bufferView": 0,
      "byteOffset": 678504,
      "componentType": 5125,
      "count": 38763,
      "type": "SCALAR"
    },
    {
      "bufferView": 2,
      "byteOffset": 1913016,
      "componentType": 5126,
      "count": 3340,
      "max": [
        126.98299407958984,
        38.626983642578125,
        69.2669677734375
      ],
      "min": [
        -119.8878173828125,
        14.143335342407227,
        -3.624685287475586
      ],
      "type": "VEC3"
    },
    {
      "bufferView": 2,
      "byteOffset": 1953096,
      "componentType": 5126,
      "count": 3340,
      "max": [
        1.0,
        0.9961974620819092,
        1.0
      ],
      "min": [
        -1.0,
        -1.0,
        -1.0
      ],
      "type": "VEC3"
    },
    {
      "bufferView": 1,
      "byteOffset": 637672,
      "componentType": 5126,
      "count": 3340,
      "max": [
        0.9585119485855103,
        0.9980080127716064
      ],
      "min": [
        0.0019157230854034424,
        0.43165573477745056
      ],
      "type": "VEC2"
    },
    {
      "bufferView": 0,
      "byteOffset": 833556,
      "componentType": 5125,
      "count": 6732,
      "type": "SCALAR"
    },
    {
      "bufferView": 2,
      "byteOffset": 1993176,
      "componentType": 5126,
      "count": 64,
      "max": [
        17.391870498657227,
        32.86931610107422,
        -27.019821166992188
      ],
      "min": [
        -10.296695709228516,
        -4.567727088928223,
        -89.22354888916016
      ],
      "type": "VEC3"
    },
    {
      "bufferView": 2,
      "byteOffset": 1993944,
      "componentType": 5126,
      "count": 64,
      "max": [
        0.9539298415184021,
        0.9601357579231262,
        -0.019820379093289375
      ],
      "min": [
        -0.9539299011230469,
        -0.9966970086097717,
        -1.0
      ],
      "type": "VEC3"
    },
    {
      "bufferView": 1,
      "byteOffset": 664392,
      "componentType": 5126,
      "count": 64,
      "max": [
        0.8758693933486938,
        0.8919809460639954
      ],
      "min": [
        0.018822312355041504,
        0.0021836161613464355
      ],
      "type": "VEC2"
    },
    {
      "bufferView": 0,
      "byteOffset": 860484,
      "componentType": 5125,
      "count": 96,
      "type": "SCALAR"
    }
  ],
  "asset": {
    "extras": {
      "author": "ilinart1 (https://sketchfab.com/ilinart1)",
      "license": "CC-BY-4.0 (http://creativecommons.org/licenses/by/4.0/)",
      "source": "https://sketchfab.com/3d-models/draft-starship-32592bef6a9c4c7d9ed7f4bf662dd8f6",
      "title": "Draft Starship"
    },
    "generator": "Sketchfab-12.67.0",
    "version": "2.0"
  },
  "bufferViews": [
    {
      "buffer": 0,
      "byteLength": 860868,
      "name": "floatBufferViews",
      "target": 34963
    },
    {
      "buffer": 0,
      "byteLength": 664904,
      "byteOffset": 860868,
      "byteStride": 8,
      "name": "floatBufferViews",
      "target": 34962
    },
    {
      "buffer": 0,
      "byteLength": 1994712,
      "byteOffset": 1525772,
      "byteStride": 12,
      "name": "floatBufferViews",
      "target": 34962
    }
  ],
  "buffers": [
    {
      "byteLength": 3520484,
      "uri": "scene.bin"
    }
  ],
  "materials": [
    {
      "doubleSided": true,
      "name": "lambert1",
      "pbrMetallicRoughness": {
        "baseColorFactor": [
          0.891026,
          0.891026,
          0.891026,
          1.0
        ],
        "roughnessFactor": 0.6
      }
    },
    {
      "doubleSided": true,
      "name": "pasted__blinn1",
      "pbrMetallicRoughness": {
        "baseColorFactor": [
          0.134615,
          0.134615,
          0.134615,
          1.0
        ],
        "roughnessFactor": 0.9207483816249483
      }
    },
    {
      "doubleSided": true,
      "name": "pasted__pasted__blinn1",
      "pbrMetallicRoughness": {
        "baseColorFactor": [
          0.23917141647800988,
          0.2806968848888971,
          0.24517168326335514,
          1.0
        ],
        "roughnessFactor": 0.9207483816249483
      }
    },
    {
      "doubleSided": true,
      "name": "blinn1",
      "pbrMetallicRoughness": {
        "baseColorFactor": [
          0.6358071275813759,
          0.5748626610602988,
          0.09912754209600003,
          1.0
        ],
        "metallicFactor": 0.0,
        "roughnessFactor": 0.9207483816249483
      }
    },
    {
      "doubleSided": true,
      "emissiveFactor": [
        0.16797389717909142,
        1.0,
        1.0
      ],
      "name": "pasted__pasted__blinn2",
      "pbrMetallicRoughness": {
        "baseColorFactor": [
          0.20848700000000003,
          0.48130699999999993,
          0.6025639999999999,
          1.0
        ],
        "metallicFactor": 0.0,
        "roughnessFactor": 0.9207483816249483
      }
    },
    {
      "doubleSided": true,
      "name": "pasted__blinn2",
      "pbrMetallicRoughness": {
        "baseColorFactor": [
          0.14843400000000007,
          0.34266999999999986,
          0.429,
          1.0
        ],
        "metallicFactor": 0.0,
        "roughnessFactor": 0.9207483816249483
      }
    }
  ],
  "meshes": [
    {
      "name": "polySurface199_lambert1_0",
      "primitives": [
        {
          "attributes": {
            "NORMAL": 1,
            "POSITION": 0,
            "TEXCOORD_0": 2
          },
          "indices": 3,
          "material": 0,
          "mode": 4
        }
      ]
    },
    {
      "name": "polySurface199_pasted__blinn1_0",
      "primitives": [
        {
          "attributes": {
            "NORMAL": 5,
            "POSITION": 4,
            "TEXCOORD_0": 6
          },
          "indices": 7,
          "material": 1,
          "mode": 4
        }
      ]
    },
    {
      "name": "polySurface199_pasted__pasted__blinn1_0",
      "primitives": [
        {
          "attributes": {
            "NORMAL": 9,
            "POSITION": 8,
            "TEXCOORD_0": 10
          },
          "indices": 11,
          "material": 2,
          "mode": 4
        }
      ]
    },
    {
      "name": "polySurface199_blinn1_0",
      "primitives": [
        {
          "attributes": {
            "NORMAL": 13,
            "POSITION": 12,
            "TEXCOORD_0": 14
          },
          "indices": 15,
          "material": 3,
          "mode": 4
        }
      ]
    },
    {
      "name": "polySurface199_pasted__pasted__blinn2_0",
      "primitives": [
        {
          "attributes": {
            "NORMAL": 17,
            "POSITION": 16,
            "TEXCOORD_0": 18
          },
          "indices": 19,
          "material": 4,
          "mode": 4
        }
      ]
    },
    {
      "name": "polySurface199_pasted__blinn2_0",
      "primitives": [
        {
          "attributes": {
            "NORMAL": 21,
            "POSITION": 20,
            "TEXCOORD_0": 22
          },
          "indices": 23,
          "material": 5,
          "mode": 4
        }
      ]
    }
  ],
  "nodes": [
    {
      "children": [
        1
      ],
      "matrix": [
        1.0,
        0.0,
        0.0,
        0.0,
        0.0,
        2.220446049250313e-16,
        -1.0,
        0.0,
        0.0,
        1.0,
        2.220446049250313e-16,
        0.0,
        0.0,
        0.0,
        0.0,
        1.0
      ],
      "name": "Sketchfab_model"
    },
    {
      "children": [
        2
      ],
      "matrix": [
        1.0,
        0.0,
        0.0,
        0.0,
        0.0,
        0.0,
        1.0,
        0.0,
        0.0,
        -1.0,
        0.0,
        0.0,
        0.0,
        0.0,
        0.0,
        1.0
      ],
      "name": "af55011467fa4ab3b083bb69773d386f.fbx"
    },
    {
      "children": [
        3
      ],
      "name": "RootNode"
    },
    {
      "children": [
        4,
        5,
        6,
        7,
        8,
        9
      ],
      "matrix": [
        6.987746238708496,
        0.0,
        0.0,
        0.0,
        0.0,
        6.987746238708496,
        0.0,
        0.0,
        0.0,
        0.0,
        6.987746238708496,
        0.0,
        -15.254303932189941,
        91.50605773925781,
        446.4819641113281,
        1.0
      ],
      "name": "polySurface199"
    },
    {
      "mesh": 0,
      "name": "polySurface199_lambert1_0"
    },
    {
      "mesh": 1,
      "name": "polySurface199_pasted__blinn1_0"
    },
    {
      "mesh": 2,
      "name": "polySurface199_pasted__pasted__blinn1_0"
    },
    {
      "mesh": 3,
      "name": "polySurface199_blinn1_0"
    },
    {
      "mesh": 4,
      "name": "polySurface199_pasted__pasted__blinn2_0"
    },
    {
      "mesh": 5,
      "name": "polySurface199_pasted__blinn2_0"
    }
  ],
  "scene": 0,
  "scenes": [
    {
      "name": "Sketchfab_Scene",
      "nodes": [
        0
      ]
    }
  ]
}
